<svg xmlns="http://www.w3.org/2000/svg" viewBox="0 0 512 512" width="100%" height="100%">
  <defs>
    <!-- Dark premium radial background gradient -->
    <radialGradient id="bgGradient" cx="50%" cy="45%" r="65%">
      <stop offset="0%" stop-color="#111827" />
      <stop offset="60%" stop-color="#0b0f19" />
      <stop offset="100%" stop-color="#05070c" />
    </radialGradient>

    <!-- Metallic Gold Gradient for main logo elements -->
    <linearGradient id="goldGradient" x1="0%" y1="100%" x2="100%" y2="0%">
      <stop offset="0%" stop-color="#9a6e1a" />
      <stop offset="25%" stop-color="#dfa530" />
      <stop offset="50%" stop-color="#fef08a" />
      <stop offset="75%" stop-color="#eab308" />
      <stop offset="100%" stop-color="#ca8a04" />
    </linearGradient>

    <!-- Metallic Gold Accent Gradient for inner details -->
    <linearGradient id="goldAccent" x1="0%" y1="0%" x2="100%" y2="100%">
      <stop offset="0%" stop-color="#fef08a" />
      <stop offset="50%" stop-color="#d97706" />
      <stop offset="100%" stop-color="#78350f" />
    </linearGradient>

    <!-- Drop shadow filter for 3D metallic feel -->
    <filter id="goldGlow" x="-20%" y="-20%" width="140%" height="140%">
      <feDropShadow dx="0" dy="8" stdDeviation="6" flood-color="#000000" flood-opacity="0.6" />
      <feDropShadow dx="0" dy="2" stdDeviation="2" flood-color="#ca8a04" flood-opacity="0.25" />
    </filter>

    <!-- Subtle inner shadow for the background -->
    <filter id="innerShadow">
      <feComponentTransfer in="SourceAlpha">
        <feFuncA type="linear" slope="1"/>
      </feComponentTransfer>
      <feGaussianBlur stdDeviation="4" result="blur"/>
      <feOffset dx="0" dy="5"/>
      <feComposite operator="out" in2="SourceGraphic"/>
      <feColorMatrix type="matrix" values="0 0 0 0 0  0 0 0 0 0  0 0 0 0 0  0 0 0 0.8 0"/>
      <feBlend mode="multiply" in2="SourceGraphic"/>
    </filter>
  </defs>

  <!-- App Icon Background Frame (Slightly rounded square / squircle representation) -->
  <rect x="0" y="0" width="512" height="512" rx="112" fill="url(#bgGradient)" />
  
  <!-- Outer glowing gold rim to make it pop on phone screens -->
  <rect x="12" y="12" width="488" height="488" rx="100" fill="none" stroke="url(#goldGradient)" stroke-width="4" opacity="0.35" />
  <rect x="20" y="20" width="472" height="472" rx="92" fill="none" stroke="#ffffff" stroke-width="1.5" stroke-dasharray="10 6" opacity="0.1" />

  <!-- Main Logo Emblem Group with 3D shadow and glowing effect -->
  <g filter="url(#goldGlow)" transform="translate(0, -10)">
    
    <!-- ========================================== -->
    <!-- 1. THE OPEN BOOK (BASE OF THE LOGO)       -->
    <!-- ========================================== -->
    
    <!-- Left pages (Multiple layers for depth) -->
    <!-- Lower spine & cover -->
    <path d="M 256,310 Q 190,314 130,285 C 105,272 100,245 125,235 C 145,227 190,242 256,256" 
          fill="none" stroke="url(#goldGradient)" stroke-width="10" stroke-linecap="round" stroke-linejoin="round" />
    
    <path d="M 256,298 Q 195,302 140,276 C 120,265 115,245 135,238 C 155,231 195,244 256,256" 
          fill="none" stroke="url(#goldGradient)" stroke-width="5" stroke-linecap="round" stroke-linejoin="round" opacity="0.8" />
          
    <path d="M 256,286 Q 200,290 150,267" 
          fill="none" stroke="url(#goldGradient)" stroke-width="3" stroke-linecap="round" stroke-linejoin="round" opacity="0.6" />

    <!-- Right pages (Multiple layers for depth) -->
    <!-- Lower spine & cover -->
    <path d="M 256,310 Q 322,314 382,285 C 407,272 412,245 387,235 C 367,227 322,242 256,256" 
          fill="none" stroke="url(#goldGradient)" stroke-width="10" stroke-linecap="round" stroke-linejoin="round" />
    
    <path d="M 256,298 Q 317,302 372,276 C 392,265 397,245 377,238 C 357,231 317,244 256,256" 
          fill="none" stroke="url(#goldGradient)" stroke-width="5" stroke-linecap="round" stroke-linejoin="round" opacity="0.8" />

    <path d="M 256,286 Q 312,290 362,267" 
          fill="none" stroke="url(#goldGradient)" stroke-width="3" stroke-linecap="round" stroke-linejoin="round" opacity="0.6" />

    <!-- Book Spine center vertical pin -->
    <line x1="256" y1="256" x2="256" y2="310" stroke="url(#goldGradient)" stroke-width="6" stroke-linecap="round" />


    <!-- ========================================== -->
    <!-- 2. THE RISING CHART / STEMS (CENTER)       -->
    <!-- ========================================== -->
    
    <!-- Central Main Trunk -->
    <line x1="256" y1="256" x2="256" y2="155" stroke="url(#goldGradient)" stroke-width="8" stroke-linecap="round" />
    
    <!-- Left Branch (Growth) -->
    <path d="M 256,215 Q 210,185 190,165" fill="none" stroke="url(#goldGradient)" stroke-width="6" stroke-linecap="round" />
    
    <!-- Right Branch (Rising Arrow) -->
    <path d="M 256,200 Q 305,165 330,135" fill="none" stroke="url(#goldGradient)" stroke-width="8" stroke-linecap="round" />

    <!-- Zigzag progress chart lines (trend) behind/within stems -->
    <path d="M 165,245 L 205,195 L 256,220 L 295,160 L 340,185" 
          fill="none" stroke="url(#goldAccent)" stroke-width="4.5" stroke-linecap="round" stroke-linejoin="round" opacity="0.9" />


    <!-- ========================================== -->
    <!-- 3. THE LEAF & ARROW HEADS                  -->
    <!-- ========================================== -->

    <!-- Top Center Leaf (vertical) -->
    <path d="M 256,155 C 242,135 242,110 256,92 C 270,110 270,135 256,155 Z" 
          fill="url(#goldGradient)" stroke="url(#goldAccent)" stroke-width="2.5" stroke-linejoin="round" />
    <line x1="256" y1="150" x2="256" y2="102" stroke="#78350f" stroke-width="1.5" opacity="0.4" />

    <!-- Left Side Leaf (angled) -->
    <path d="M 190,165 C 172,152 153,136 153,116 C 170,123 186,141 190,165 Z" 
          fill="url(#goldGradient)" stroke="url(#goldAccent)" stroke-width="2.5" stroke-linejoin="round" />

    <!-- Right Side Arrow Head (pointing top-right at 45 degrees) -->
    <!-- Arrow tip at (345, 120) -->
    <polygon points="345,120 310,124 322,136 312,146 324,158 334,148 346,160" 
             fill="url(#goldGradient)" stroke="url(#goldAccent)" stroke-width="1" />
    <!-- Re-render clean arrow polygons for precise styling -->
    <path d="M 320,140 L 348,112 L 354,136 L 344,126 L 328,142 Z" 
          fill="url(#goldGradient)" stroke="url(#goldAccent)" stroke-width="1.5" />

  </g>

  <!-- ========================================== -->
  <!-- 4. "NAQLA" TYPOGRAPHY (LATIN)              -->
  <!-- ========================================== -->
  <g filter="url(#goldGlow)">
    <!-- Stylized Modern Text NAQLA -->
    <text x="256" y="395" 
          font-family="system-ui, -apple-system, 'Segoe UI', Roboto, sans-serif" 
          font-weight="900" 
          font-size="54" 
          letter-spacing="10" 
          text-anchor="middle" 
          fill="url(#goldGradient)">NAQLA</text>

    <!-- Connective design nodes on letters to match the tech theme -->
    <!-- Node on N top-left -->
    <circle cx="123" cy="358" r="4.5" fill="#ffffff" stroke="url(#goldAccent)" stroke-width="2" />
    <!-- Node on A middle-bar -->
    <circle cx="210" cy="380" r="3.5" fill="#fef08a" />
    <!-- Node on Q tail -->
    <circle cx="316" cy="396" r="4" fill="#ffffff" stroke="url(#goldAccent)" stroke-width="1.5" />
  </g>

  <!-- ========================================== -->
  <!-- 5. SUBTITLE (ARABIC TEXT)                  -->
  <!-- ========================================== -->
  <text x="256" y="440" 
        font-family="system-ui, 'Cairo', 'Segoe UI', sans-serif" 
        font-weight="bold" 
        font-size="17" 
        text-anchor="middle" 
        fill="#94a3b8" 
        letter-spacing="0.5">منصة المناهج الإلكترونية التفاعلية</text>
</svg>
